<svg width="410" height="156" viewBox="0 0 410 156" fill="none" xmlns="http://www.w3.org/2000/svg">
<path d="M134.68 72.304C134.68 63.2587 137.155 56.3467 142.104 51.568C147.053 46.7893 155.203 44.4 166.552 44.4H196.504V58.48H166.552C161.859 58.48 158.36 59.5893 156.056 61.808C153.837 64.0267 152.728 67.5253 152.728 72.304V84.72H190.872V98.8H152.728V134H134.68V72.304ZM227.408 135.536C218.533 135.536 211.707 133.488 206.928 129.392C202.149 125.296 199.76 119.451 199.76 111.856V95.984C199.76 88.3893 202.149 82.544 206.928 78.448C211.707 74.352 218.533 72.304 227.408 72.304C236.283 72.304 243.109 74.352 247.888 78.448C252.667 82.544 255.056 88.3893 255.056 95.984V111.856C255.056 119.451 252.667 125.296 247.888 129.392C243.109 133.488 236.283 135.536 227.408 135.536ZM227.408 122.736C230.907 122.736 233.595 121.797 235.472 119.92C237.435 118.043 238.416 115.355 238.416 111.856V95.984C238.416 92.4853 237.435 89.7973 235.472 87.92C233.595 86.0427 230.907 85.104 227.408 85.104C223.909 85.104 221.179 86.0427 219.216 87.92C217.339 89.7973 216.4 92.4853 216.4 95.984V111.856C216.4 115.355 217.339 118.043 219.216 119.92C221.179 121.797 223.909 122.736 227.408 122.736ZM294.283 135.536C285.408 135.536 278.582 133.488 273.803 129.392C269.024 125.296 266.635 119.451 266.635 111.856V95.984C266.635 88.3893 269.024 82.544 273.803 78.448C278.582 74.352 285.408 72.304 294.283 72.304C305.376 72.304 313.312 75.6747 318.091 82.416L306.699 91.632C304.651 89.2427 302.774 87.5787 301.067 86.64C299.36 85.616 297.099 85.104 294.283 85.104C290.784 85.104 288.054 86.0427 286.091 87.92C284.214 89.7973 283.275 92.4853 283.275 95.984V111.856C283.275 115.355 284.214 118.043 286.091 119.92C288.054 121.797 290.784 122.736 294.283 122.736C297.099 122.736 299.36 122.267 301.067 121.328C302.774 120.304 304.651 118.597 306.699 116.208L318.091 125.424C315.702 128.837 312.63 131.397 308.875 133.104C305.12 134.725 300.256 135.536 294.283 135.536ZM354.033 135.536C345.158 135.536 338.332 133.488 333.553 129.392C328.774 125.296 326.385 119.451 326.385 111.856V95.984C326.385 88.3893 328.774 82.544 333.553 78.448C338.332 74.352 345.158 72.304 354.033 72.304C362.908 72.304 369.734 74.352 374.513 78.448C379.292 82.544 381.681 88.3893 381.681 95.984V111.856C381.681 119.451 379.292 125.296 374.513 129.392C369.734 133.488 362.908 135.536 354.033 135.536ZM354.033 122.736C357.532 122.736 360.22 121.797 362.097 119.92C364.06 118.043 365.041 115.355 365.041 111.856V95.984C365.041 92.4853 364.06 89.7973 362.097 87.92C360.22 86.0427 357.532 85.104 354.033 85.104C350.534 85.104 347.804 86.0427 345.841 87.92C343.964 89.7973 343.025 92.4853 343.025 95.984V111.856C343.025 115.355 343.964 118.043 345.841 119.92C347.804 121.797 350.534 122.736 354.033 122.736Z" fill="#4F6B55"/>
<path d="M59 47.7C48.0465 47.7 37.5417 52.0512 29.7965 59.7965C22.0512 67.5417 17.7 78.0466 17.7 89V94.9H26.55C27.3324 94.9 28.0827 95.2108 28.636 95.764C29.1892 96.3173 29.5 97.0676 29.5 97.85V133.25C29.5 134.032 29.1892 134.783 28.636 135.336C28.0827 135.889 27.3324 136.2 26.55 136.2H23.6C20.4704 136.2 17.4691 134.957 15.2561 132.744C13.0432 130.531 11.8 127.53 11.8 124.4V89C11.8 76.4818 16.7728 64.4763 25.6245 55.6246C34.4763 46.7728 46.4818 41.8 59 41.8C71.5182 41.8 83.5237 46.7728 92.3754 55.6246C101.227 64.4763 106.2 76.4818 106.2 89V124.4C106.2 127.53 104.957 130.531 102.744 132.744C100.531 134.957 97.5295 136.2 94.4 136.2H91.45C90.6676 136.2 89.9173 135.889 89.364 135.336C88.8108 134.783 88.5 134.032 88.5 133.25V97.85C88.5 97.0676 88.8108 96.3173 89.364 95.764C89.9173 95.2108 90.6676 94.9 91.45 94.9H100.3V89C100.3 78.0466 95.9487 67.5417 88.2035 59.7965C80.4582 52.0512 69.9534 47.7 59 47.7ZM61.95 91.95C61.95 91.1676 61.6392 90.4173 61.086 89.864C60.5327 89.3108 59.7824 89 59 89C58.2176 89 57.4673 89.3108 56.914 89.864C56.3608 90.4173 56.05 91.1676 56.05 91.95V133.25C56.05 134.032 56.3608 134.783 56.914 135.336C57.4673 135.889 58.2176 136.2 59 136.2C59.7824 136.2 60.5327 135.889 61.086 135.336C61.6392 134.783 61.95 134.032 61.95 133.25V91.95ZM44.25 100.8C45.0324 100.8 45.7827 101.111 46.336 101.664C46.8892 102.217 47.2 102.968 47.2 103.75V127.35C47.2 128.132 46.8892 128.883 46.336 129.436C45.7827 129.989 45.0324 130.3 44.25 130.3C43.4676 130.3 42.7173 129.989 42.164 129.436C41.6108 128.883 41.3 128.132 41.3 127.35V103.75C41.3 102.968 41.6108 102.217 42.164 101.664C42.7173 101.111 43.4676 100.8 44.25 100.8ZM76.7 103.75C76.7 102.968 76.3892 102.217 75.836 101.664C75.2827 101.111 74.5324 100.8 73.75 100.8C72.9676 100.8 72.2173 101.111 71.664 101.664C71.1108 102.217 70.8 102.968 70.8 103.75V127.35C70.8 128.132 71.1108 128.883 71.664 129.436C72.2173 129.989 72.9676 130.3 73.75 130.3C74.5324 130.3 75.2827 129.989 75.836 129.436C76.3892 128.883 76.7 128.132 76.7 127.35V103.75Z" fill="#4F6B55"/>
</svg>
